<?xml version="1.0" encoding="UTF-8" standalone="no"?>
<svg
   xmlns:dc="http://purl.org/dc/elements/1.1/"
   xmlns:cc="http://creativecommons.org/ns#"
   xmlns:rdf="http://www.w3.org/1999/02/22-rdf-syntax-ns#"
   xmlns:svg="http://www.w3.org/2000/svg"
   xmlns="http://www.w3.org/2000/svg"
   xmlns:sodipodi="http://sodipodi.sourceforge.net/DTD/sodipodi-0.dtd"
   xmlns:inkscape="http://www.inkscape.org/namespaces/inkscape"
   width="48px"
   height="48px"
   viewBox="0 0 48 48"
   data-name="Layer 1"
   id="Layer_1"
   version="1.1"
   sodipodi:docname="svg.svg"
   inkscape:version="1.0 (4035a4fb49, 2020-05-01)">
  <metadata
     id="metadata17">
    <rdf:RDF>
      <cc:Work
         rdf:about="">
        <dc:format>image/svg+xml</dc:format>
        <dc:type
           rdf:resource="http://purl.org/dc/dcmitype/StillImage" />
      </cc:Work>
    </rdf:RDF>
  </metadata>
  <defs
     id="defs15">
    <inkscape:path-effect
       maxComplexity="1000"
       drawall="true"
       nbgenerations="1"
       similar_only="false"
       generator="m -54.828537,109.14155 h 51.9976835 m 51.9976835,0 h 51.99768"
       ref_path="M -54.828537,19.940501 H 101.16451"
       lpeversion="1"
       is_visible="true"
       id="path-effect228"
       effect="vonkoch" />
    <inkscape:path-effect
       simplify_just_coalesce="false"
       simplify_individual_paths="false"
       helper_size="5"
       smooth_angles="0"
       threshold="0.002"
       steps="1"
       lpeversion="1"
       is_visible="true"
       id="path-effect226"
       effect="simplify" />
    <inkscape:path-effect
       crossing_points_vector=""
       add_other_stroke_width="inkscape_1.0_and_up"
       inverse_width="false"
       both="false"
       add_stroke_width="inkscape_1.0_and_up"
       prop_to_stroke_width="true"
       interruption_width="3"
       switcher_size="15"
       lpeversion="1"
       is_visible="true"
       id="path-effect224"
       effect="knot" />
    <inkscape:path-effect
       spray_tool_friendly="true"
       fixed_displacement="true"
       shift_nodes="true"
       handles="along"
       global_randomize="1;1"
       displace_y="10;1"
       displace_x="10;1"
       segments="2"
       max_segment_size="1.55993"
       method="segments"
       lpeversion="1"
       is_visible="true"
       id="path-effect222"
       effect="roughen" />
    <inkscape:path-effect
       spray_tool_friendly="true"
       fixed_displacement="false"
       shift_nodes="true"
       handles="retract"
       global_randomize="2.2;-823201064"
       displace_y="1.74306;-1967965733"
       displace_x="2.56;98487970"
       segments="9"
       max_segment_size="1"
       method="segments"
       lpeversion="1"
       is_visible="true"
       id="path-effect220"
       effect="roughen" />
    <inkscape:path-effect
       border_marks="both"
       mark_dir="left"
       offset="0"
       shift="0"
       major_mark_steps="5"
       minor_mark_length="7"
       mark_length="14"
       mark_distance="20"
       unit="px"
       lpeversion="1"
       is_visible="true"
       id="path-effect218"
       effect="ruler" />
    <inkscape:path-effect
       split_items="false"
       mirror_copies="false"
       copies_to_360="true"
       gap="-0.01"
       rotation_angle="60"
       starting_angle="0"
       num_copies="3"
       method="normal"
       lpeversion="1"
       is_visible="true"
       id="path-effect216"
       origin="-55.545121,18.361295"
       starting_point="0,0"
       effect="copy_rotate" />
    <inkscape:path-effect
       split_items="false"
       oposite_fuse="false"
       fuse_paths="false"
       discard_orig_path="false"
       mode="free"
       lpeversion="1"
       is_visible="true"
       id="path-effect214"
       center_point="100.03707,18.361295"
       end_point="100.03707,105.51442"
       start_point="100.03707,-68.79183"
       effect="mirror_symmetry" />
    <inkscape:path-effect
       hide_knot="false"
       vertical="false"
       scale_y_rel="false"
       prop_scale="1"
       bendpath="M -55.545121,18.361295 H 100.03707"
       lpeversion="1"
       is_visible="true"
       id="path-effect212"
       effect="bend_path" />
    <inkscape:path-effect
       lpeversion="1"
       id="path-effect210"
       effect="attach_path" />
    <inkscape:path-effect
       visualbounds="false"
       linkedpath=""
       lpeversion="1"
       is_visible="true"
       id="path-effect208"
       effect="bounding_box" />
    <inkscape:path-effect
       interpolator_type="CubicBezierFit"
       lpeversion="1"
       is_visible="true"
       id="path-effect206"
       effect="interpolate_points" />
    <inkscape:path-effect
       draw_ori_path="false"
       rot_axes="0"
       draw_perspective_axes="false"
       gen_perspective_frame="false"
       draw_axes="false"
       gen_isometric_frame="false"
       slice_arc="false"
       arc_other="false"
       gen_arc="false"
       method="auto"
       lpeversion="1"
       is_visible="true"
       id="path-effect204"
       effect="pts2ellipse" />
    <inkscape:path-effect
       allow_transforms="true"
       css_properties=""
       attributes=""
       method="d"
       linkeditem=""
       lpeversion="1"
       is_visible="true"
       id="path-effect202"
       effect="clone_original" />
    <inkscape:path-effect
       min_radius="5"
       phi="5"
       teeth="10"
       lpeversion="1"
       is_visible="true"
       id="path-effect200"
       effect="gears" />
    <inkscape:path-effect
       back_thickness="0.25"
       front_thickness="1"
       stroke_width_bottom="1"
       stroke_width_top="1"
       fat_output="true"
       bottom_smth_variation="0;1"
       top_smth_variation="0;1"
       scale_tb="1"
       scale_tf="1"
       scale_bb="1"
       scale_bf="1"
       top_tgt_variation="0;1"
       bottom_tgt_variation="0;1"
       top_edge_variation="17.430625;1"
       bottom_edge_variation="17.430625;1"
       bender="22.245975,18.361295 , 5,0"
       do_bend="true"
       growth="0"
       dist_rdm="69.5;1"
       direction="22.245975,13.361295 , 38.895548,0"
       lpeversion="1"
       is_visible="true"
       id="path-effect198"
       effect="rough_hatches" />
    <inkscape:path-effect
       hide_knot="false"
       vertical="false"
       scale_y_rel="false"
       prop_scale="1"
       bendpath="M -55.545121,18.361295 H 100.03707"
       lpeversion="1"
       is_visible="true"
       id="path-effect196"
       effect="bend_path" />
  </defs>
  <sodipodi:namedview
     inkscape:document-rotation="0"
     pagecolor="#ffffff"
     bordercolor="#666666"
     borderopacity="1"
     objecttolerance="10"
     gridtolerance="10"
     guidetolerance="10"
     inkscape:pageopacity="0"
     inkscape:pageshadow="2"
     inkscape:window-width="1920"
     inkscape:window-height="1027"
     id="namedview13"
     showgrid="false"
     inkscape:zoom="0.90509668"
     inkscape:cx="24.624066"
     inkscape:cy="13.29886"
     inkscape:window-x="-8"
     inkscape:window-y="-8"
     inkscape:window-maximized="1"
     inkscape:current-layer="Layer_1" />
  <title
     id="title2" />
  <g
     inkscape:path-effect="#path-effect220;#path-effect228"
     transform="matrix(3,0,0,3,-50.01607,-36.72246)"
     id="g166">
    <path
       d="m -15.003579,-20.918476 0.785458,-2.205717 -0.507454,2.122124 -1.778603,3.331462 1.002032,0.579926 1.235826,0.274826 -2.394366,0.213388 -3.684751,0.636426 1.723722,0.307937 -1.31321,0.224259 -3.227439,-2.918397 -3.673573,0.0093 0.291156,-1.076646 0.881719,0.166119 -0.67375,-0.0536 1.684375,-1.553764 -1.26575,-0.38702 -0.767229,0.565031 -1.210823,-0.674921 1.35431,-1.270789 3.173936,-0.933424 -2.261339,-3.451036 -0.03209,-1.802789 2.192747,0.539348 -2.942273,-1.979379 2.846697,2.857758 -2.000127,-4.961617 0.524991,1.270286 0.166633,-0.775497 -4.255567,-1.93797 1.437216,-2.068604 -0.558822,-0.336799 0.706186,-0.667734 1.970176,2.3626 1.885948,-2.864045 0.343631,0.706331 1.257761,-1.036527 0.621838,0.784181 2.187046,0.220908 0.593927,-1.472012 0.726835,-0.320305 -1.440865,-1.73376 8.293002,1.206905 -0.692227,0.19286 2.964844,0.04962 -1.527539,-0.03722 -0.394453,-1.117605 0.656771,-0.342922 -0.282346,-0.863177 6.9076686,-1.468614 -0.018469,2.21038 -2.1354472,-0.197294 3.9512013,0.891993 -3.9596445,0.526581 1.9239324,2.49507 3.60101288,0.185357 -3.93886298,-2.754886 4.03009813,1.406721 0.85871142,1.941411 1.65435705,1.797627 -1.0284362,1.712839 2.589048,1.996112 -0.5573906,0.572027 0.5494542,0.757586 1.9141843,0.852529 0.144375,-1.725442 0.658825,3.145253 -1.0549687,-0.153071 0.875057,0.788349 0.6076488,-0.109227 -4.5184535,0.07713 6.2943546,3.663678 0.5247344,0.860498 -3.1772813,-0.06565 2.4850878,0.190868 2.0612107,-2.303087 -1.6883786,0.175756 0.044546,2.839315 0.5831616,0.01636 2.9273471,1.483677 0.696011,1.939383 0.188075,1.117314 -0.877983,0.326812 1.24146,1.318781 -2.296915,2.867218 2.969656,-0.690399 -6.4867347,5.0321011 -0.6127344,1.7750615 -3.1258457,0.1409519 4.3676146,0.1328867 1.9228512,0.00468 -3.9345622,0.4069019 0.6615739,0.1343302 -0.343664,-2.3838346 2.1927036,0.976973 1.2356447,1.8524976 -0.964723,1.2380932 1.075657,1.2665848 L 6.3950601,-3.4411743 5.1135573,-1.0332305 4.8375449,0.19254335 3.598735,-0.14667851 3.4446258,-0.85128337 2.1684423,0.55097728 3.2103303,1.710145 -2.4913602,5.8980483 -3.1256649,5.6171841 -4.2540242,5.0104005 -6.0548445,6.135437 l 1.8550468,2.3363217 -0.4773828,0.046752 2.7727735,-0.6517804 -3.5530053,0.658582 -1.4858594,-0.2138079 -4.1549063,0.7356886 1.2993751,0.1579861 0.00344,0.1074305 1.6352187,3.0417002 -0.1127223,0.11632 -4.921414,2.213779 2.522781,-2.117482 0.242253,-0.0478 -1.336752,0.469293 -1.368339,0.680201 -0.421004,-2.185595 -2.485383,0.476752 -3.233321,-0.582826 4.239727,1.270208 -5.059572,-0.424077 1.932734,0.09532 -2.734639,0.151785 -3.62318,-0.05957 -2.322891,-2.7721293 2.956078,0.2035681 -0.679022,-0.00882 -0.731543,0.037769 -1.374749,1.7511646 0.710528,1.340133 -6.432896,0.133405 -3.257054,-3.4998421 1.605686,-2.9802005 0.131192,2.1626452 0.534789,-0.0811 -4.887782,0.3987686 0.963777,-2.7457037 0.866119,0.403601 -0.06936,0.6645346 1.994557,-0.6638821 -3.600842,-0.427115 -0.204523,0.9978548 0.240229,-1.1164802 -2.356777,0.2855909 -0.05261,0.2469402 1.908365,-2.7877027 -2.936122,-0.4456169 -1.117671,-0.9231131 0.651336,-2.7510946 -0.20535,-0.55640447 -1.523746,-0.75982343 0.09214,0.2020313 -1.180685,-0.8064673 -4.197223,0.074667 1.75768,1.73433624 -0.678358,-2.07838034 -1.564848,-1.4417547 -1.792936,1.5660913 1.146703,-1.7702752 -1.064234,0.6767064 -1.470514,-6.1214462 4.745555,-0.5991766 0.24461,-0.116744 -0.41121,-3.072606 0.908606,1.096676 -2.064131,-3.49134 -0.120312,-1.184544 2.967593,-1.762715 -0.608254,-1.457308 0.524472,-1.228148 -2.697979,-1.172257 -2.747766,0.919479 0.56925,-0.04898 0.569164,-0.700405 2.62379,-0.248066 -1.205606,-2.650313 -0.453391,0.147017 -2.190331,0.115948 -0.918135,0.06858 1.321479,-1.137732 -0.495287,-0.455759 -0.624698,-0.382378 -0.774801,-1.203284 -0.352792,-0.03898 3.016125,-1.683195 -2.690841,-3.606605 -0.67925,0.886302 -0.622856,-1.412509 3.133815,-0.165476 0.07574,0.629778 0.04396,-3.265771 3.01817,1.671764 1.782248,-4.122005 3.452897,0.0048 -3.127402,-3.851975 3.990069,-0.434715 -3.247196,-3.321199 -2.946067,-1.084833 0.312812,-1.853703 -4.18275,-0.478523 0.735164,-0.468926 2.570757,-0.280047 4.87489,0.119543 -2.929186,-1.600587 1.826252,-0.102647 -0.633315,-0.04399 -0.328236,0.167751 0.466125,-2.704547 -3.917328,1.793464 3.911042,1.439661 1.976223,-3.767658 -0.280656,2.51472 -0.428474,-0.848768 2.05344,-2.937973 0.07279,0.70216 1.125099,-0.599159 3.654561,-1.218952 -1.389609,0.862838 -1.194853,-1.308775 3.104015,0.079 0.451157,0.857644 1.379574,-1.269912 1.078433,1.108224 2.235114,1.669814 3.237709,-2.557644 0.103812,-0.878578 1.2375,-0.401636 -0.455812,0.424807 2.408632,-1.763146 -0.250164,3.567736 1.192387,-2.088278 4.43539,-0.863773 -1.219797,1.64329 1.463627,0.09767 5.237694,-0.129317 0.663488,-0.07775 -0.135045,-1.536729 -2.498486,-0.01471 0.04499,-0.769167 0.680882,-1.215467 2.728166,-1.99364 0.341945,-2.312916 -2.916547,1.649901 2.719471,0.661209 -0.408375,-1.417135 -2.939062,-1.49092 3.649069,-0.883949 -3.792109,-0.935414 4.28361,0.811011 1.082967,1.155051 1.9397284,1.003483 3.7961451,-0.739523 -0.061875,0.965353 -0.086023,-0.716203 0.049672,0.203158 0.7956868,0.811412 1.1470117,-0.211997 -3.833832,1.0272 5.6746287,-0.775487 -2.9973527,0.216686 1.8231265,1.104718 6.7082864,-1.380234 0.9309609,-0.167114 -0.4178281,0.649498 2.0070703,1.649375 -0.2805,-1.501745 -3.4882031,-1.168805 4.1060563,0.07244 1.4998649,1.360104 0.42495,-0.221026 -0.8873901,0.689693 5.1835065,-1.007678 1.157545,0.0708 0.461009,0.333773 4.701716,2.020709 -0.955104,1.805742 -0.226445,-0.33025 0.08663,-0.803739 -0.89921,1.650725 -0.793832,-1.541275 3.736024,1.937825 -0.525649,0.73036 1.191192,4.014919 0.573382,-1.106204 -2.249627,1.187795 4.262829,1.138015 1.542058,-0.862236 -0.725074,-2.096493 2.30692,-0.400416 -0.715373,-0.851414 -0.132715,3.731308 -0.351644,2.595559 -1.081261,-0.212973 -0.58876,2.077545 2.458242,0.546425 -0.334698,1.42957 2.944111,-0.375186 -1.173908,-0.491953 2.607167,1.406356 5.372824,1.659561 -0.379844,1.994486 -1.201406,0.625801 -1.385312,-0.339378 2.831557,2.789843 -0.708125,0.960556 -0.09453,2.887634 -0.565984,0.244703 -0.3575,-0.145347 0.267094,1.500049 0.765703,-0.622582 0.206871,-0.611699 3.798065,-0.203627 -2.059069,3.267512 2.223031,0.01141 -4.180116,-0.197939 2.175165,3.821884 -1.994867,-0.03634 0.424254,0.874361 0.849362,0.804458 -3.011173,2.072217 1.239391,0.985159 0.707856,1.451542 0.703146,2.906811 -2.038008,0.828549 0.202241,2.993226 -0.597266,1.887934 0.840044,-0.176041 0.714246,-1.248623 0.22696,1.57667 2.513934,0.38253 -0.09625,-0.0084 -0.139992,0.102398 1.312351,2.011357 3.25514,0.503273 -0.456586,0.508716 -0.143687,0.04049 -0.270511,-0.426106 0.203308,1.057406 4.433122,1.3713313 -0.745672,2.2852646 0.239549,2.068936 -1.656471,1.3428611 2.937909,4.20198874 -3.444652,3.45291176 0.115604,-0.4599007 2.829584,0.6626258 -3.460933,2.292616 -1.37418,2.7048442 -2.383192,-1.1259662 0.03068,-0.1853704 0.359734,-1.3809154 0.06875,-0.1104733 -0.661935,2.7679567 -0.581999,0.2153725 -0.639258,0.076169 -1.649467,3.6494656 -2.070796,-1.423975 -0.371508,1.685771 -1.651443,1.575268 -0.674616,-0.956232 -0.381482,0.120531 -3.603668,0.829266 3.766609,1.397559 0.858602,-1.515965 -2.781666,-0.57206 0.856918,0.735116 1.859262,2.311612 0.776411,-1.340261 -2.979823,3.911687 -1.491604,3.429311 -1.144739,-3.10089 0.08531,0.157038 -2.409735,0.856965 1.591848,-0.647367 -0.841352,2.399491 0.673463,2.786565"
       sodipodi:type="spiral"
       style="fill:none;fill-rule:evenodd;stroke:#000000"
       id="path159"
       sodipodi:cx="-15.003579"
       sodipodi:cy="-20.918476"
       sodipodi:expansion="1"
       sodipodi:revolution="2"
       sodipodi:radius="59.202568"
       sodipodi:argument="-187.65414"
       sodipodi:t0="0" />
    <path
       inkscape:original-d="M 24.449518,23.222185 C 6.6356859,44.116312 7.7031552,77.057911 29.2347,94.999528 47.505533,110.22409 76.131644,109.15899 91.441729,90.214349 104.08285,74.572284 103.02141,50.24587 86.656554,37.577632 73.652038,27.510675 53.59824,28.566045 43.59015,42.362804 c -7.508831,10.351377 -6.464306,26.185247 4.785168,33.496092 7.66553,4.9817 19.405007,3.957495 23.925779,-4.785165 2.527315,-4.887539 1.514588,-12.95673 -4.785161,-14.355467 -2.324683,-0.516151 -7.664197,1.906117 -4.785154,4.785158"
       id="path161"
       style="fill:none;fill-rule:evenodd;stroke:#000000"
       d="m 24.449518,23.222185 -0.670251,-0.394601 -2.578756,0.195529 2.113039,0.656015 1.525105,1.351503 -2.467256,2.949318 2.597595,-0.0808 -2.940892,2.632363 1.02353,-0.218644 -0.521774,2.326804 -3.566484,1.827722 0.02269,-0.07806 1.535188,-0.542536 1.767431,2.621489 1.254077,1.342147 -1.82653,2.177587 -1.076528,-0.381566 1.491609,0.220455 0.05779,-0.806367 -3.985568,1.969133 -4.52614,2.469227 -2.784289,1.307072 -1.7424685,-1.110233 1.8442485,-0.818025 2.705701,3.6772 0.837891,-0.199531 -2.028418,-0.641628 -1.996084,1.538115 -4.2258722,1.239211 0.6109426,3.016053 -2.0400685,0.975298 -0.4052913,3.220421 -0.6134854,1.599501 1.7277425,-0.319005 1.607392,-0.490879 -2.1024227,-0.01962 0.6092932,2.563467 -0.7662701,0.803466 -0.9411951,1.840906 1.9525442,2.577964 -2.4472071,1.112944 1.9523626,0.257007 3.1075473,1.116782 0.7621797,3.36329 -1.3236953,-0.294908 2.2483826,0.467639 -0.117562,-0.698181 -0.8791409,-1.351659 -0.1711433,1.431291 3.6922532,1.050592 2.621438,0.646573 -1.352485,0.193971 0.107261,0.356745 2.111289,-1.819851 1.866752,1.610421 0.776512,1.414917 -0.371533,1.723279 0.257246,1.096183 -0.396468,0.267708 -0.636351,0.187463 -0.236413,0.75064 2.405426,0.405563 1.719228,1.526916 0.279905,5.409347 0.164914,0.337388 4.396219,-0.132709 -4.581894,1.661843 0.216992,-0.06144 -1.020937,0.06694 0.420949,0.734521 0.194656,2.916099 -0.217597,-1.353978 2.818244,0.353644 1.510772,1.980659 -3.399688,-0.05857 2.445593,2.418206 1.331271,-1.84496 1.001862,0.999372 0.473427,1.226865 1.541976,0.690521 -2.075063,0.157309 0.487088,-0.136581 -1.949676,1.981935 3.761449,-0.789804 2.521649,1.130583 0.281524,-0.606894 1.660198,-2.105169 0.860768,2.108139 1.235556,2.030288 -0.177142,-0.62711 0.167384,1.363641 -3.383953,0.294463 5.977121,1.61055 2.313015,1.46663 -0.870289,2.15417 3.245215,1.13069 -0.831187,0.51679 -0.09056,0.12968 4.676877,-1.1977 3.616594,-1.53071 1.831757,1.32831 -0.442148,1.35564 0.181844,0.84821 -0.277063,-1.97389 1.161875,-2.72438 3.528938,-0.25102 0.708984,-1.11907 -0.02379,3.2966 2.358125,1.61029 0.809875,0.001 2.100485,-0.13376 0.06136,0.13112 -2.602359,0.26624 -3.111625,2.52444 4.821319,0.52318 4.546437,-2.47457 0.538828,0.49924 3.934219,-0.0439 -1.024846,0.90072 3.940004,0.50744 -1.583062,-1.46553 -1.881601,-0.0537 -1.090547,-0.20971 1.002703,0.69651 2.312376,-0.23867 2.164438,-2.43192 3.137149,-0.63241 1.902141,-2.32743 -1.021792,-0.64466 0.180469,-2.000457 -0.03009,-0.740263 1.19639,-0.165553 -0.31598,-1.10332 2.570281,-1.871884 0.340042,1.20371 -3.898886,-0.781104 1.312516,0.599034 -0.736361,-0.01839 2.832688,-1.267073 1.926591,0.392248 1.478125,2.763821 1.800513,-0.292443 -0.88204,-0.975839 -0.257011,-2.258292 0.344035,-0.135616 -3.778039,-1.300426 5.886236,-1.900326 0.31058,-2.336362 1.597144,2.299592 2.610755,1.827664 -3.21357,-3.132697 3.009159,-1.193241 2.676953,1.112222 0.969003,0.652102 0.0025,-1.981501 -2.377377,1.589181 2.042316,-6.632551 -2.516508,-2.75323 0.967313,-2.887634 -0.05569,-0.744115 -2.222687,0.07466 -2.984545,0.141691 4.012269,-1.232745 -0.981507,1.39232 0.857525,-2.052452 2.367951,-3.875791 1.114781,0.05325 0.264687,-1.114445 3.109215,-0.247102 0.22576,-0.471618 -1.951123,-0.908186 -4.791016,1.608825 0.689825,-2.051299 -2.533989,-2.110882 0.934111,-1.738048 2.479275,-0.226564 3.311971,0.109584 0.01444,0.43768 -3.079922,0.347189 0.344355,-3.313424 1.766137,-0.03673 0.600327,-2.717628 -0.02088,0.351081 1.300648,-2.384831 -0.38775,-0.135927 1.256407,-0.707426 0.86582,-0.789009 -0.74377,-0.584386 -1.398622,-0.590185 0.839056,-0.948541 -1.039105,-1.603218 -1.557843,1.340793 -4.802051,-4.481706 -3.174463,-0.703789 2.422873,-4.438755 -1.458272,0.76685 2.62841,-1.431278 0.80025,1.309062 -0.249047,-0.968046 -0.643328,-0.09737 -0.554125,-0.629019 v 2.704722 l 2.695369,-2.891495 -2.11475,0.358968 -0.394608,-1.716152 -1.011309,-1.17596 -5.917441,0.160413 1.628973,-1.292982 -2.505436,1.434456 1.485439,-1.458736 -1.758078,-0.877767 0.62199,-2.36279 1.285118,-1.656647 -2.071003,-2.358238 -0.117624,-0.574235 -4.611643,-0.387738 0.208312,0.0316 2.02125,0.271736 -6.936111,-0.570831 0.920906,0.268577 0.04469,0.269161 0.142313,1.211578 -2.758808,-0.185684 -1.869141,0.150965 -3.735703,-0.495784 0.696351,0.787122 0.254375,-0.548387 1.959375,1.006137 2.740818,-0.832518 -3.877455,0.3711 -1.596141,-0.304906 -1.133299,1.599596 -3.509067,-0.0223 -2.255688,-1.197066 0.145407,0.654062 0.642984,-0.564069 1.791014,2.199692 0.901354,-0.818067 -6.543943,-0.09761 -0.9075,0.364538 -2.54882,-2.128775 1.793859,2.987693 -2.546492,-3.024952 -1.988593,0.173187 -1.736499,1.718602 2.09228,-1.554556 0.279327,0.930952 -2.071017,0.06837 -0.772405,1.855037 0.126656,0.526788 -0.682897,0.873525 -0.101076,3.311002 -1.247419,-0.81472 -0.744601,0.633122 1.845556,-0.249797 -2.828724,0.98531 4.599485,-0.866043 -5.224416,1.849788 -4.579142,0.431262 0.348207,1.98879 -3.382236,1.066127 3.466547,-0.173784 1.780117,1.899956 -1.073028,0.44716 3.835902,1.294994 -0.973995,3.023215 -0.95416,2.380025 -2.89351,-0.609087 2.660281,-0.360091 -5.189231,3.804154 -1.9305,-0.387592 -0.858516,-1.561137 2.165594,0.954638 -0.438474,0.6057 -1.081631,-0.741211 3.387343,3.285129 -0.189313,0.125945 0.704255,3.775056 1.564406,0.198946 0.856583,1.084189 0.297163,1.763402 0.185695,0.309531 0.07921,-0.07067 -1.91038,2.05925 -2.300375,-1.621347 2.739783,2.267048 -0.168347,0.672855 0.653469,1.499214 0.229013,0.248623 0.425548,0.543574 1.633259,0.722089 -0.484093,2.144483 -0.323899,-1.238852 3.576778,3.677317 0.869396,-1.445013 -0.33649,1.026871 1.968926,-0.484244 1.751393,-0.06781 1.472702,0.421972 -0.919105,-0.207537 1.254627,1.278376 0.225139,-0.389594 -1.71112,0.0017 5.039611,1.018203 2.089828,-0.181216 0.991031,1.049729 1.299633,-0.01123 1.289922,2.810923 0.574652,0.625411 0.931825,-1.811114 -2.408283,2.123675 3.049025,-1.805845 1.144092,0.438233 1.31193,-1.918026 -1.260132,-0.610665 3.764536,-3.379444 -1.624219,-2.108588 -3.304644,0.806627 8.732039,-0.842385 -1.455579,-0.292822 -0.696066,0.508066 0.110688,0.266587 0.818266,-2.166284 0.79855,-0.549789 -0.602773,-1.200948 -1.487016,-1.178459 3.644292,-1.054814 0.09204,-0.921586 -2.33561,-0.218137 0.551853,0.122672 -3.584396,-1.503821 3.892352,-4.814477 -0.501015,0.07022 -0.586524,0.409184 0.925657,0.135112 -2.184232,1.517564 0.899162,0.333933 -2.789364,-3.549646 3.378226,-1.274696 -3.333425,0.754081 -0.881691,-0.224318 0.85986,0.578508 -1.58372,-1.585537 -1.758003,0.890274 1.994581,-0.769201 -4.000764,0.44266 -0.251024,-1.186651 0.191129,1.861958 -0.129508,0.203539 3.185436,1.68746 -1.992853,3.789642 0.11054,-2.379519" />
  </g>
</svg>
